<svg width="48" height="48" viewBox="0 0 48 48" fill="none" xmlns="http://www.w3.org/2000/svg">
<path d="M39.0801 10.16C37.0748 8.16889 34.692 6.59833 32.0715 5.54053C29.4511 4.48272 26.6457 3.95898 23.8201 4.00004C18.5158 3.98678 13.4234 6.0812 9.6633 9.82255C5.9032 13.5639 3.78334 18.6457 3.77008 23.95C3.75682 29.2544 5.85124 34.3467 9.59259 38.1068C13.3339 41.8669 18.4158 43.9868 23.7201 44C24.8631 44.0195 25.9802 43.6588 26.896 42.9747C27.8118 42.2905 28.4745 41.3216 28.7801 40.22C28.9749 39.4245 28.9728 38.5936 28.7742 37.799C28.5756 37.0045 28.1863 36.2703 27.6401 35.66C27.5138 35.5163 27.4314 35.3394 27.4026 35.1502C27.3739 34.961 27.4 34.7676 27.4779 34.5928C27.5558 34.4181 27.6822 34.2693 27.8422 34.1643C28.0021 34.0592 28.1888 34.0022 28.3801 34H31.6801C34.786 34.0146 37.7824 32.8535 40.0676 30.7501C42.3528 28.6466 43.7577 25.7565 44.0001 22.66C44.0745 20.3513 43.6765 18.0516 42.8304 15.9022C41.9844 13.7527 40.7082 11.7987 39.0801 10.16V10.16ZM31.7601 30H28.4601C27.4963 29.9946 26.5517 30.2689 25.7408 30.7897C24.9299 31.3105 24.2875 32.0554 23.8915 32.9341C23.4956 33.8127 23.3631 34.7874 23.5102 35.7399C23.6573 36.6924 24.0776 37.5817 24.7201 38.3C24.8452 38.4263 24.9336 38.5842 24.9759 38.7568C25.0182 38.9294 25.0127 39.1103 24.9601 39.28C24.8601 39.7 24.4001 39.96 23.7801 40C21.5087 39.9709 19.2696 39.4585 17.2117 38.4969C15.1537 37.5352 13.3241 36.1464 11.8446 34.4228C10.365 32.6992 9.26944 30.6803 8.6307 28.5004C7.99197 26.3205 7.82472 24.0296 8.14008 21.78C8.71042 17.9999 10.5992 14.5433 13.4724 12.0215C16.3455 9.49972 20.0179 8.07525 23.8401 8.00004H24.0001C26.2618 7.97043 28.5065 8.39406 30.6018 9.24593C32.6972 10.0978 34.6007 11.3607 36.2001 12.96C37.4481 14.2088 38.4287 15.6988 39.082 17.3389C39.7353 18.9791 40.0477 20.7352 40.0001 22.5C39.793 24.5462 38.8372 26.4436 37.3163 27.828C35.7954 29.2123 33.8166 29.9858 31.7601 30V30Z" fill="#699BF7"/>
<path d="M24 16C25.6569 16 27 14.6569 27 13C27 11.3431 25.6569 10 24 10C22.3431 10 21 11.3431 21 13C21 14.6569 22.3431 16 24 16Z" fill="#699BF7"/>
<path d="M30.5002 14.4001C29.9866 14.6968 29.5724 15.1391 29.3101 15.6712C29.0478 16.2032 28.9491 16.8011 29.0265 17.3893C29.1039 17.9774 29.3539 18.5294 29.745 18.9754C30.136 19.4215 30.6505 19.7416 31.2235 19.8953C31.7964 20.049 32.4021 20.0295 32.9639 19.839C33.5257 19.6486 34.0184 19.2959 34.3798 18.8255C34.7412 18.3551 34.955 17.7881 34.9943 17.1962C35.0335 16.6043 34.8964 16.0141 34.6002 15.5001C34.4034 15.1585 34.1412 14.859 33.8286 14.6188C33.5159 14.3786 33.159 14.2024 32.7782 14.1003C32.3975 13.9981 32.0003 13.972 31.6094 14.0235C31.2185 14.0749 30.8416 14.2029 30.5002 14.4001V14.4001ZM17.5002 14.4001C16.9862 14.1039 16.396 13.9668 15.8041 14.006C15.2122 14.0453 14.6452 14.2591 14.1748 14.6205C13.7044 14.9819 13.3517 15.4746 13.1613 16.0365C12.9709 16.5983 12.9513 17.2039 13.105 17.7769C13.2587 18.3498 13.5788 18.8643 14.0249 19.2553C14.4709 19.6464 15.0229 19.8964 15.6111 19.9738C16.1992 20.0512 16.7971 19.9525 17.3291 19.6902C17.8612 19.4279 18.3035 19.0137 18.6002 18.5001C18.7974 18.1587 18.9254 17.7818 18.9769 17.3909C19.0283 17 19.0022 16.6029 18.9 16.2221C18.7979 15.8413 18.6217 15.4844 18.3815 15.1718C18.1413 14.8591 17.8418 14.5969 17.5002 14.4001V14.4001ZM12.3202 22.5201C11.8282 22.8523 11.4458 23.3231 11.2214 23.8728C10.9971 24.4225 10.9409 25.0265 11.06 25.6081C11.1791 26.1898 11.4681 26.723 11.8904 27.1403C12.3128 27.5577 12.8494 27.8403 13.4325 27.9524C14.0155 28.0645 14.6187 28.0011 15.1657 27.7702C15.7127 27.5393 16.1789 27.1513 16.5052 26.6553C16.8316 26.1593 17.0034 25.5776 16.9989 24.9839C16.9945 24.3902 16.814 23.8111 16.4802 23.3201C16.261 22.9928 15.979 22.7122 15.6506 22.4946C15.3223 22.2769 14.954 22.1266 14.5671 22.0522C14.1803 21.9778 13.7825 21.9808 13.3968 22.0611C13.0112 22.1415 12.6452 22.2974 12.3202 22.5201V22.5201Z" fill="#699BF7"/>
</svg>
