<svg width="48" height="48" viewBox="0 0 48 48" fill="none" xmlns="http://www.w3.org/2000/svg">
<path d="M7.67806 11.7159C13.5581 3.88391 25.7381 1.60591 34.4061 6.99591C42.9661 12.3159 46.1141 22.5499 42.6061 32.1499C39.2961 41.2159 30.5741 44.8059 24.2881 40.2459C21.9341 38.5379 21.0201 36.3959 20.5801 32.9179L20.3681 30.9439L20.2781 30.1479C20.0321 28.2799 19.6561 27.4439 18.8681 27.0039C17.7981 26.4079 17.0841 26.3939 15.6781 26.9379L14.9761 27.2299L14.6181 27.3859C12.5901 28.2659 11.2421 28.5759 9.53606 28.2179L9.13605 28.1239L8.80805 28.0299C3.23005 26.3019 2.40405 18.7359 7.67806 11.7159V11.7159ZM9.64605 25.1479L9.89206 25.2219L10.1601 25.2819C11.0381 25.4559 11.7881 25.3119 13.0341 24.7979L14.2381 24.2839C16.6421 23.2979 18.2081 23.2039 20.3301 24.3839C22.1641 25.4079 22.8801 26.9799 23.2441 29.7039L23.3501 30.6219L23.4601 31.6859L23.5541 32.5299C23.8981 35.2519 24.5241 36.7099 26.0501 37.8179C30.6001 41.1179 37.1181 38.4359 39.7901 31.1199C42.8221 22.8159 40.1381 14.0919 32.8221 9.54191C25.4721 4.97391 15.0241 6.92991 10.0761 13.5159C5.92605 19.0419 6.43605 24.0759 9.64605 25.1479V25.1479ZM32.0961 21.1599C32.0016 20.8399 31.9721 20.5043 32.0093 20.1728C32.0466 19.8412 32.1498 19.5205 32.3129 19.2295C32.476 18.9385 32.6958 18.683 32.9592 18.4782C33.2225 18.2735 33.5242 18.1235 33.8465 18.0371C34.1687 17.9507 34.505 17.9297 34.8355 17.9753C35.166 18.021 35.484 18.1323 35.7708 18.3027C36.0576 18.4731 36.3074 18.6992 36.5055 18.9677C36.7035 19.2362 36.8459 19.5416 36.9241 19.8659C37.0769 20.4998 36.976 21.1684 36.6429 21.729C36.3097 22.2896 35.7708 22.6978 35.1409 22.8666C34.511 23.0354 33.8401 22.9515 33.2713 22.6326C32.7025 22.3138 32.2807 21.7853 32.0961 21.1599V21.1599ZM33.0841 28.1359C32.9125 27.4954 33.0023 26.813 33.3339 26.2387C33.6655 25.6645 34.2116 25.2455 34.8521 25.0739C35.4926 24.9023 36.175 24.9922 36.7492 25.3238C37.3235 25.6553 37.7425 26.2014 37.9141 26.8419C37.999 27.1591 38.0207 27.4898 37.9778 27.8153C37.935 28.1409 37.8284 28.4547 37.6642 28.7391C37.5 29.0234 37.2815 29.2726 37.021 29.4725C36.7605 29.6723 36.4632 29.8189 36.1461 29.9039C35.8289 29.9889 35.4981 30.0105 35.1726 29.9677C34.8471 29.9248 34.5332 29.8182 34.2489 29.6541C33.9646 29.4899 33.7153 29.2713 33.5155 29.0108C33.3156 28.7504 33.169 28.4531 33.0841 28.1359V28.1359ZM28.1401 15.1539C27.9685 14.5134 28.0583 13.831 28.3899 13.2567C28.7215 12.6825 29.2676 12.2635 29.9081 12.0919C30.5486 11.9203 31.231 12.0102 31.8052 12.3418C32.3795 12.6733 32.7985 13.2194 32.9701 13.8599C33.055 14.1771 33.0767 14.5078 33.0338 14.8333C32.991 15.1589 32.8844 15.4727 32.7202 15.7571C32.556 16.0414 32.3375 16.2906 32.077 16.4905C31.8165 16.6903 31.5192 16.8369 31.2021 16.9219C30.5616 17.0935 29.8791 17.0036 29.3049 16.6721C29.0206 16.5079 28.7713 16.2893 28.5715 16.0288C28.3716 15.7684 28.225 15.4711 28.1401 15.1539V15.1539ZM28.0841 33.1499C27.9896 32.8299 27.9601 32.4943 27.9973 32.1628C28.0346 31.8312 28.1378 31.5105 28.3009 31.2195C28.464 30.9285 28.6838 30.673 28.9472 30.4682C29.2105 30.2635 29.5122 30.1135 29.8345 30.0271C30.1567 29.9407 30.493 29.9197 30.8235 29.9653C31.154 30.011 31.472 30.1223 31.7588 30.2927C32.0456 30.4631 32.2954 30.6892 32.4935 30.9577C32.6915 31.2262 32.8339 31.5316 32.9121 31.8559C33.0649 32.4898 32.964 33.1584 32.6309 33.719C32.2977 34.2796 31.7588 34.6878 31.1289 34.8566C30.499 35.0254 29.8281 34.9415 29.2593 34.6226C28.6905 34.3038 28.2687 33.7753 28.0841 33.1499V33.1499ZM21.0901 13.2099C21.002 12.8918 20.9779 12.5593 21.019 12.2318C21.0601 11.9042 21.1657 11.5881 21.3296 11.3016C21.4936 11.0151 21.7127 10.7639 21.9742 10.5624C22.2358 10.361 22.5346 10.2134 22.8535 10.1281C23.1724 10.0428 23.505 10.0215 23.8322 10.0654C24.1594 10.1094 24.4746 10.2177 24.7597 10.3841C25.0448 10.5505 25.2941 10.7717 25.4933 11.0349C25.6924 11.2982 25.8375 11.5983 25.9201 11.9179C26.085 12.5563 25.991 13.234 25.6587 13.8034C25.3263 14.3728 24.7825 14.7879 24.1455 14.9583C23.5086 15.1287 22.8302 15.0405 22.2579 14.7131C21.6856 14.3856 21.2659 13.8454 21.0901 13.2099V13.2099Z" fill="#699BF7"/>
</svg>
