<svg width="48" height="48" viewBox="0 0 48 48" fill="none" xmlns="http://www.w3.org/2000/svg">
<path d="M24 4.13974L1.85254 15.5452L3.00004 16.3065L24 5.80652L45 16.3065L46.1475 15.5453L24 4.13965V4.13974ZM24 7.69324L3.84379 17.7714V46.4062H6.65629V19.0312H41.3438V46.4062H44.1563V17.7714L24 7.69324ZM8.62504 20.9062V22.5937H39.375V20.9062H8.62504ZM8.62504 24.2812V25.9687H39.375V24.2812H8.62504ZM18 27.6562C17.2032 27.6562 16.6507 28.1741 16.2235 28.7437C15.7964 29.3132 15.4476 30.0281 15.1474 30.8287C14.7471 31.8964 14.4405 33.11 14.2804 34.2868C13.4627 34.0773 12.2134 33.8714 12 34.4999C11.7794 35.15 12.6885 35.7733 13.5627 36.2078C13.5327 36.3078 13.5036 36.4112 13.4777 36.5213C13.3096 37.2356 13.2188 38.1187 13.2188 38.9999C13.2188 39.8812 13.3096 40.7643 13.4777 41.4787C13.597 41.9855 13.7691 42.3942 13.9225 42.6562H34.0776C34.231 42.3942 34.4031 41.9855 34.5224 41.4787C34.6904 40.7643 34.7813 39.8812 34.7813 38.9999C34.7813 38.1187 34.6904 37.2356 34.5224 36.5212C34.4972 36.4159 34.4689 36.3114 34.4374 36.2078C35.3115 35.7733 36.2207 35.15 36 34.4999C35.7867 33.8714 34.5374 34.0773 33.7197 34.2868C33.5596 33.11 33.2531 31.8964 32.8527 30.8287C32.5525 30.0281 32.2037 29.3132 31.7765 28.7437C31.3494 28.1741 30.7969 27.6562 30 27.6562H18ZM18 29.3437H30C29.9532 29.3437 30.1507 29.3883 30.4266 29.7562C30.7026 30.1241 31.0101 30.7217 31.2724 31.4212C31.6168 32.3395 31.8807 33.4309 32.025 34.46C29.8308 33.8554 27.3919 33.8437 24 33.8437C20.6082 33.8437 18.1693 33.8554 15.975 34.46C16.1194 33.4309 16.3833 32.3394 16.7277 31.4212C16.99 30.7217 17.2975 30.1241 17.5734 29.7562C17.8494 29.3883 18.0469 29.3437 18 29.3437V29.3437ZM16.5 37.4999C16.8979 37.4999 17.2794 37.658 17.5607 37.9393C17.842 38.2206 18 38.6021 18 38.9999C18 39.3978 17.842 39.7793 17.5607 40.0606C17.2794 40.3419 16.8979 40.4999 16.5 40.4999C16.1022 40.4999 15.7207 40.3419 15.4394 40.0606C15.1581 39.7793 15 39.3978 15 38.9999C15 38.6021 15.1581 38.2206 15.4394 37.9393C15.7207 37.658 16.1022 37.4999 16.5 37.4999V37.4999ZM31.5 37.4999C31.8979 37.4999 32.2794 37.658 32.5607 37.9393C32.842 38.2206 33 38.6021 33 38.9999C33 39.3978 32.842 39.7793 32.5607 40.0606C32.2794 40.3419 31.8979 40.4999 31.5 40.4999C31.1022 40.4999 30.7207 40.3419 30.4394 40.0606C30.1581 39.7793 30 39.3978 30 38.9999C30 38.6021 30.1581 38.2206 30.4394 37.9393C30.7207 37.658 31.1022 37.4999 31.5 37.4999ZM14.3438 44.3437V46.4062H17.1563V44.3437H14.3438ZM30.8438 44.3437V46.4062H33.6563V44.3437H30.8438Z" fill="#699BF7"/>
</svg>
