<svg width="48" height="48" viewBox="0 0 48 48" fill="none" xmlns="http://www.w3.org/2000/svg">
<path fill-rule="evenodd" clip-rule="evenodd" d="M9.59993 8.76474C9.59951 8.91414 9.55725 9.06044 9.47796 9.18706C9.39866 9.31368 9.2855 9.41557 9.15127 9.48118C9.01705 9.54679 8.86714 9.57351 8.71851 9.5583C8.56989 9.5431 8.42849 9.48658 8.31033 9.39514L3.21273 5.43034C3.11697 5.35552 3.03951 5.25986 2.98624 5.15063C2.93296 5.0414 2.90527 4.92147 2.90527 4.79994C2.90527 4.67841 2.93296 4.55848 2.98624 4.44925C3.03951 4.34002 3.11697 4.24436 3.21273 4.16954L8.31033 0.201542C8.42892 0.109773 8.57091 0.0531783 8.7201 0.0382137C8.8693 0.0232492 9.0197 0.050517 9.15415 0.116907C9.2886 0.183297 9.40168 0.286136 9.4805 0.413695C9.55932 0.541254 9.60071 0.688397 9.59993 0.838342V3.20634H28.7999V0.831942C28.7999 0.681985 28.842 0.535037 28.9215 0.40786C29.0009 0.280683 29.1145 0.178397 29.2493 0.112673C29.3841 0.0469478 29.5346 0.0204295 29.6838 0.0361429C29.8329 0.0518562 29.9746 0.109168 30.0927 0.201542L35.1871 4.16634C35.2829 4.24116 35.3604 4.33682 35.4136 4.44605C35.4669 4.55528 35.4946 4.67521 35.4946 4.79674C35.4946 4.91827 35.4669 5.0382 35.4136 5.14743C35.3604 5.25666 35.2829 5.35232 35.1871 5.42714L30.0927 9.39514C29.9744 9.48769 29.8324 9.54504 29.683 9.56063C29.5335 9.57622 29.3828 9.54943 29.2479 9.48332C29.113 9.4172 28.9994 9.31444 28.9202 9.18679C28.841 9.05914 28.7993 8.91177 28.7999 8.76154V6.39994H9.59993V8.76474ZM30.3999 15.9999H7.99993C7.57559 15.9999 7.16862 16.1685 6.86856 16.4686C6.5685 16.7686 6.39993 17.1756 6.39993 17.5999V39.9999C6.39993 40.4243 6.5685 40.8313 6.86856 41.1313C7.16862 41.4314 7.57559 41.5999 7.99993 41.5999H30.3999C30.8243 41.5999 31.2312 41.4314 31.5313 41.1313C31.8314 40.8313 31.9999 40.4243 31.9999 39.9999V17.5999C31.9999 17.1756 31.8314 16.7686 31.5313 16.4686C31.2312 16.1685 30.8243 15.9999 30.3999 15.9999ZM7.99993 12.7999C6.72689 12.7999 5.506 13.3057 4.60582 14.2058C3.70565 15.106 3.19993 16.3269 3.19993 17.5999V39.9999C3.19993 41.273 3.70565 42.4939 4.60582 43.3941C5.506 44.2942 6.72689 44.7999 7.99993 44.7999H30.3999C31.673 44.7999 32.8939 44.2942 33.794 43.3941C34.6942 42.4939 35.1999 41.273 35.1999 39.9999V17.5999C35.1999 16.3269 34.6942 15.106 33.794 14.2058C32.8939 13.3057 31.673 12.7999 30.3999 12.7999H7.99993ZM47.1647 19.1999H44.7999V38.3999H47.1647C47.3141 38.4004 47.4604 38.4426 47.5871 38.5219C47.7137 38.6012 47.8156 38.7144 47.8812 38.8486C47.9468 38.9828 47.9735 39.1327 47.9583 39.2814C47.9431 39.43 47.8866 39.5714 47.7951 39.6895L43.8303 44.7871C43.7555 44.8829 43.6599 44.9604 43.5506 45.0136C43.4414 45.0669 43.3215 45.0946 43.1999 45.0946C43.0784 45.0946 42.9585 45.0669 42.8492 45.0136C42.74 44.9604 42.6444 44.8829 42.5695 44.7871L38.6015 39.6895C38.5099 39.5712 38.4534 39.4295 38.4383 39.2806C38.4232 39.1317 38.4502 38.9815 38.5162 38.8472C38.5822 38.7128 38.6846 38.5997 38.8117 38.5206C38.9387 38.4416 39.0855 38.3998 39.2351 38.3999H41.5999V19.1999H39.2351C39.0857 19.1995 38.9394 19.1573 38.8128 19.078C38.6862 18.9987 38.5843 18.8855 38.5187 18.7513C38.4531 18.6171 38.4264 18.4671 38.4416 18.3185C38.4568 18.1699 38.5133 18.0285 38.6047 17.9103L42.5695 12.8127C42.6444 12.717 42.74 12.6395 42.8492 12.5862C42.9585 12.533 43.0784 12.5053 43.1999 12.5053C43.3215 12.5053 43.4414 12.533 43.5506 12.5862C43.6599 12.6395 43.7555 12.717 43.8303 12.8127L47.7983 17.9103C47.8899 18.0287 47.9465 18.1704 47.9616 18.3193C47.9767 18.4682 47.9497 18.6184 47.8837 18.7527C47.8177 18.8871 47.7153 19.0002 47.5882 19.0792C47.4611 19.1583 47.3144 19.2001 47.1647 19.1999V19.1999Z" fill="#699BF7"/>
</svg>
