<svg width="48" height="48" viewBox="0 0 48 48" fill="none" xmlns="http://www.w3.org/2000/svg">
<path d="M6 10H28M24 14L28 10L24 6M10 6L6 10L10 14M38 20V42M34 38L38 42L42 38M42 24L38 20L34 24" stroke="#699BF7" stroke-width="4" stroke-linecap="round" stroke-linejoin="round"/>
<path d="M24 20H10C7.79086 20 6 21.7909 6 24V38C6 40.2091 7.79086 42 10 42H24C26.2091 42 28 40.2091 28 38V24C28 21.7909 26.2091 20 24 20Z" stroke="#699BF7" stroke-width="4" stroke-linecap="round" stroke-linejoin="round"/>
</svg>
